<svg width="23" height="23" viewBox="0 0 23 23" fill="none" xmlns="http://www.w3.org/2000/svg">
<path d="M20.3709 4.04336L22.7072 1.70706L21.293 0.292847L18.9567 2.62915C15.7901 0.159154 11.2055 0.380416 8.29296 3.29292L3.00011 8.58577L1.70718 7.29285L0.292969 8.70706L4.58588 13L4.29295 13.2929C2.79786 14.788 2.79786 17.212 4.29295 18.7071C5.78805 20.2022 8.21207 20.2022 9.70717 18.7071L10.0001 18.4142L14.293 22.7071L15.7072 21.2928L14.4143 20L19.7072 14.7071C22.6197 11.7946 22.8409 7.20992 20.3709 4.04336ZM5.70717 14.7071L6.00009 14.4142L8.58588 17L8.29295 17.2929C7.57891 18.0069 6.42121 18.0069 5.70717 17.2929C4.99312 16.5788 4.99312 15.4212 5.70717 14.7071ZM9.70718 4.70713C12.0781 2.33623 15.9221 2.33623 18.293 4.70713C20.6639 7.07803 20.6639 10.922 18.293 13.2929L13.0001 18.5858L4.41432 9.99999L9.70718 4.70713Z" fill="white"/>
</svg>
