<svg width="54" height="54" viewBox="0 0 54 54" fill="none" xmlns="http://www.w3.org/2000/svg">
<path d="M49 37H5C3.34315 37 2 38.3431 2 40V47C2 48.6569 3.34315 50 5 50H49C50.6569 50 52 48.6569 52 47V40C52 38.3431 50.6569 37 49 37Z" fill="#CDCECE"/>
<path d="M44 40H21V43H44V40Z" fill="#E6E9EA"/>
<path d="M35 44H21V47H35V44Z" fill="#E6E9EA"/>
<path d="M11.5 48C13.9853 48 16 45.9853 16 43.5C16 41.0147 13.9853 39 11.5 39C9.01472 39 7 41.0147 7 43.5C7 45.9853 9.01472 48 11.5 48Z" fill="#E6E9EA"/>
<path d="M49 20H5C3.34315 20 2 21.3431 2 23V31C2 32.6569 3.34315 34 5 34H49C50.6569 34 52 32.6569 52 31V23C52 21.3431 50.6569 20 49 20Z" fill="#A0A2A3"/>
<path d="M45 23H21V26H45V23Z" fill="#E6E9EA"/>
<path d="M35 28H21V31H35V28Z" fill="#E6E9EA"/>
<path fill-rule="evenodd" clip-rule="evenodd" d="M16.6956 24.2907L10.2658 30.1152L6.40479 27.2536L7.59566 25.6468L10.1388 27.5316L15.3529 22.8085L16.6956 24.2907Z" fill="white"/>
<path d="M48 3H6C3.79086 3 2 4.79086 2 7V13C2 15.2091 3.79086 17 6 17H48C50.2091 17 52 15.2091 52 13V7C52 4.79086 50.2091 3 48 3Z" fill="#A0A2A3"/>
<path fill-rule="evenodd" clip-rule="evenodd" d="M16.5937 7.75861L10.2346 13.2197L6.42529 10.5431L7.57512 8.90666L10.1117 10.689L15.2907 6.24133L16.5937 7.75861Z" fill="white"/>
<path d="M45 6H21V9H45V6Z" fill="#E6E9EA"/>
<path d="M35 11H21V14H35V11Z" fill="#E6E9EA"/>
</svg>
