<svg width="54" height="54" viewBox="0 0 54 54" fill="none" xmlns="http://www.w3.org/2000/svg">
<g opacity="0.6">
<path opacity="0.6" fill-rule="evenodd" clip-rule="evenodd" d="M25.8055 10.2886L10.7898 7.46582L2.5 43.0074L17.5157 45.8301L25.8055 10.2886ZM21.5444 14.4537L22.703 14.6715L23.2687 12.2461L22.1101 12.0283L21.5444 14.4537ZM20.4347 19.2112L21.5934 19.429L22.1591 17.0036L21.0005 16.7858L20.4347 19.2112ZM19.3468 23.8755L20.5055 24.0933L21.0494 21.7612L19.8908 21.5433L19.3468 23.8755ZM18.2372 28.633L19.3958 28.8508L19.9398 26.5187L18.7811 26.3009L18.2372 28.633ZM17.1275 33.3905L18.2861 33.6083L18.8301 31.2762L17.6715 31.0584L17.1275 33.3905ZM16.0179 38.1481L17.1765 38.3659L17.7422 35.9405L16.5836 35.7227L16.0179 38.1481ZM14.9082 42.9056L16.0668 43.1234L16.6325 40.698L15.4739 40.4802L14.9082 42.9056ZM11.673 12.598L12.8316 12.8158L13.3973 10.3904L12.2387 10.1726L11.673 12.598ZM10.5633 17.3555L11.7219 17.5733L12.2877 15.1479L11.129 14.9301L10.5633 17.3555ZM9.47543 22.0198L10.634 22.2376L11.178 19.9054L10.0194 19.6876L9.47543 22.0198ZM8.36576 26.7773L9.52438 26.9951L10.0683 24.663L8.90971 24.4452L8.36576 26.7773ZM7.2561 31.5348L8.41472 31.7526L8.95867 29.4205L7.80005 29.2027L7.2561 31.5348ZM6.14644 36.2923L7.30505 36.5101L7.87076 34.0847L6.71215 33.8669L6.14644 36.2923ZM5.03677 41.0499L6.19539 41.2677L6.7611 38.8423L5.60248 38.6245L5.03677 41.0499Z" fill="#9C9C9C"/>
<path opacity="0.6" fill-rule="evenodd" clip-rule="evenodd" d="M24.2572 48.884L50.8088 40.8832L46.9146 27.8885L47.2892 27.7759L46.6187 25.5393L47.5665 23.2268L45.6978 22.8244L43.2359 25.6985L45.3601 28.357L43.6923 28.8598L41.5677 26.2013L38.0962 27.2475L40.2205 29.9055L38.5528 30.4084L36.4286 27.75L32.9567 28.7961L35.0813 31.4546L33.4132 31.957L31.289 29.2986L27.8175 30.3448L29.9417 33.0032L28.2736 33.5056L26.1493 30.8475L22.6778 31.8937L24.8022 34.5517L23.1344 35.0546L21.0098 32.3961L19.0815 32.9773L19.9881 36.0027L20.3628 35.8897L24.2572 48.884ZM44.0817 22.4767L40.7178 21.7523L38.2564 24.6266L41.6203 25.3509L44.0817 22.4767ZM39.1019 21.4042L35.7384 20.68L33.2769 23.5546L36.6405 24.2785L39.1019 21.4042ZM34.1223 20.3323L30.7584 19.608L28.297 22.4822L31.6605 23.2065L34.1223 20.3323ZM29.1425 19.2599L25.7786 18.5355L23.3171 21.4102L26.681 22.1345L29.1425 19.2599ZM24.1625 18.1878L21.1141 17.5315L19.8324 20.6597L21.7011 21.0621L24.1625 18.1878ZM37.9929 34.9326L23.9113 39.1759L24.3048 40.4886L38.3864 36.2454L37.9929 34.9326ZM38.8174 37.6829L28.8083 40.6989L29.2013 42.0116L39.2109 38.9957L38.8174 37.6829Z" fill="#CDCECE"/>
<path opacity="0.6" d="M46.7551 11.4376L32.4058 18.8752V4L46.7551 11.4376Z" fill="#CDCECE"/>
</g>
</svg>
