<svg width="54" height="55" viewBox="0 0 54 55" fill="none" xmlns="http://www.w3.org/2000/svg">
<g opacity="0.5">
<path opacity="0.5" fill-rule="evenodd" clip-rule="evenodd" d="M21.4059 8.05659L17.9687 6.51553L17.2613 2.87842L14.7491 5.58475L11.0241 5.05528L12.916 8.25987L11.3132 11.5607L14.9942 10.8468L17.7402 13.4187L18.1166 9.76334L21.4059 8.05659Z" fill="#CDCECE"/>
<path opacity="0.5" fill-rule="evenodd" clip-rule="evenodd" d="M45.61 32.3061L46.2436 34.2086L44.9743 35.8702L47.0534 35.7946L48.2211 37.4201L48.8658 35.4715L50.856 34.8211L49.1805 33.6881L49.2395 31.6552L47.5578 32.9097L45.61 32.3061Z" fill="#CDCECE"/>
<path opacity="0.5" fill-rule="evenodd" clip-rule="evenodd" d="M13.5086 39.9683L9.48967 41.8795L5.67779 39.6686L6.186 44.072L2.85596 47.0379L7.18653 47.8343L8.92604 51.8784L11.1045 47.9771L15.5207 47.5019L12.5229 44.2929L13.5086 39.9683Z" fill="#CDCECE"/>
<path opacity="0.5" fill-rule="evenodd" clip-rule="evenodd" d="M46.6441 21.7416L35.0107 20.0578L29.7811 9.49916L24.5515 20.0578L12.9181 21.7416L21.3338 29.9166L19.3419 41.4951L29.7811 36.0259L40.2203 41.4951L38.2284 29.9166L46.6441 21.7416Z" fill="#A0A2A3"/>
</g>
</svg>
